<svg width="131" height="118" viewBox="0 0 131 118" fill="none" xmlns="http://www.w3.org/2000/svg">
<path d="M9.08439 58.3262C20.0832 58.6592 31.073 59.0917 42.0815 58.7757C50.7261 58.5276 65.6429 59.6862 72.8288 53.0822C81.333 45.2665 79.7024 32.3516 76.5785 22.5168C74.6446 16.4287 68.6372 9.12017 61.2798 12.628C48.7469 18.6033 44.3022 33.6256 42.9814 46.4896C42.2626 53.4908 55.558 70.9343 61.8048 64.694C67.4916 59.0131 78.7529 17.2334 60.9798 22.2171C54.3308 24.0816 45.3191 38.6659 43.1314 45.1412C41.1129 51.1155 40.0065 58.5715 45.5312 62.6713C54.3102 69.1861 60.1863 58.8456 58.955 50.2354C58.0698 44.0455 40.1189 42.9359 36.082 42.2944C27.9153 40.9965 17.9113 39.2105 9.83432 42.1445C7.59312 42.9587 4.69748 44.6739 5.33471 47.5384C6.59118 53.1866 23.3337 62.5648 26.4829 64.694C31.9881 68.4162 63.8684 92.4454 71.1789 81.6997C75.9223 74.7275 77.3846 61.549 78.3783 53.3818C79.5022 44.1449 76.8334 36.8058 70.429 30.0083C62.0063 21.0685 51.5208 15.5318 39.3817 15.1751C35.9253 15.0735 37.3338 9.34712 39.3817 7.98325C44.8473 4.34331 61.5376 7.42254 65.7044 12.3283C71.7595 19.4573 74.3509 30.4241 77.1034 39.2229C78.3703 43.2725 45.9335 42.0434 43.3564 41.9198C39.8606 41.7522 3.40714 35.3618 2.40997 38.8483C0.585431 45.2275 5.31829 53.4218 7.43453 58.9255C10.5414 67.0057 12.8819 80.8572 24.683 79.0028C39.2444 76.7146 45.5104 54.7585 49.1309 43.3432C50.6874 38.4355 57.1359 6.89311 65.3294 10.6802C73.4647 14.4404 91.1279 25.3285 93.9769 34.5781C98.5245 49.3422 62.3986 27.1817 59.33 24.6144C48.4997 15.5535 33.9237 17.7237 32.1074 34.0537C31.1424 42.7292 35.4801 50.2336 41.7815 56.0038C46.6645 60.4753 57.2925 69.6146 63.8296 63.3455C70.8696 56.5942 71.5858 46.2702 71.1039 37.1252C70.512 25.8896 54.855 19.2331 45.3812 18.1717C34.2288 16.9223 29.6112 23.9148 21.8333 30.4578C17.7823 33.8656 11.9197 35.6783 8.48444 39.7473C3.07174 46.1585 10.512 55.3832 14.1839 60.4238C26.9701 77.9761 47.1927 98.9195 70.729 88.5919C81.3682 83.9235 78.5347 72.9146 77.8533 63.0459C77.417 56.7255 78.468 42.9991 70.204 41.4703C56.796 38.9899 45.4645 48.5336 38.4818 58.9255C36.4976 61.8785 28.6909 71.7309 33.6822 75.3319C42.1533 81.4435 60.1578 86.0024 69.979 80.6509C75.6185 77.5781 79.4561 69.2697 83.0279 64.3194C87.6251 57.948 92.2035 51.533 96.9767 45.291C98.7318 42.9957 102.919 41.1275 98.9265 38.3988C92.8331 34.234 82.485 35.4022 75.5286 35.4022C68.1537 35.4022 65.7367 34.7391 68.1042 42.7439C72.7713 58.5239 78.871 71.2598 94.2019 78.778C100.251 81.7443 103.342 82.4362 108.001 76.8302C112.979 70.8401 125.046 54.0357 121.65 45.3659C119.302 39.3734 113.774 32.8305 106.876 32.7052C96.0282 32.5082 81.7763 43.0861 73.1288 48.4374C69.0381 50.9688 67.5526 52.1747 70.879 56.3784C79.4005 67.1474 91.1282 75.9828 102.076 84.097C103.738 85.3287 112.599 93.2447 116.325 91.7384C121.147 89.7888 123.401 79.834 124.574 75.7065C130.329 55.4646 115.314 44.6367 101.251 32.93C97.765 30.0278 95.615 28.8954 91.8771 32.3307C83.9797 39.5887 82.6131 41.6419 86.1026 52.2581C87.3253 55.9779 88.5962 63.9114 94.1269 62.971C102.434 61.5585 109.255 53.6855 113.025 46.7144C115.985 41.2405 119.644 31.7753 116.475 25.5883C112.817 18.4456 103.001 15.4264 95.7768 17.872C84.2341 21.7797 73.8602 30.286 64.1296 37.35C57.9333 41.8482 53.3491 45.2668 51.2307 52.9323C49.0417 60.8532 43.3844 81.099 52.2056 87.3933C69.7519 99.9133 84.165 84.3176 93.752 70.3875C97.6072 64.7857 106.297 54.436 105.901 46.7144C105.54 39.6868 100.969 30.7792 96.9767 25.2137C92.2879 18.6781 81.4043 9.59786 78.5283 22.367C75.3609 36.4296 81.5699 54.5369 83.0279 68.6645C83.7201 75.3719 90.1974 83.3286 80.0282 85.9699C68.2813 89.0209 56.4905 90.3808 44.5563 87.7679C37.0512 86.1246 29.8192 83.5461 22.4332 81.475C20.4234 80.9114 15.5558 80.6729 13.884 79.0028C4.32027 69.4491 21.4625 42.9219 27.3078 36.2263C36.9886 25.1372 47.7167 26.8765 59.7799 21.1683C65.4765 18.4728 80.7825 8.03563 86.3276 13.3771C101.598 28.0867 106.276 50.7983 106.276 70.9869C106.276 77.2194 93.4269 82.5863 89.0274 84.9211C79.6052 89.9214 70.4167 90.4039 60.6049 85.9699C57.1712 84.4182 50.8408 83.7075 48.156 81.0255C36.6174 69.499 51.0736 46.3907 57.9801 36.7507C64.0608 28.2632 70.9755 19.3117 82.4279 19.3703C92.4953 19.4219 104.536 23.463 112.125 30.1581C125.064 41.5725 132.556 68.5059 126.224 84.996C123.188 92.9046 108.17 98.0808 101.026 100.578C93.4918 103.213 84.3279 95.6363 79.1282 90.9143C73.5835 85.8789 72.802 77.1281 74.7036 70.1628C75.1252 68.6185 79.5329 63.5455 78.3033 62.5964C62.1422 50.1213 36.1805 44.3316 16.2088 43.7178C6.82783 43.4294 5.67346 48.5767 3.98483 56.3784C0.660832 71.7359 10.2159 92.767 24.833 98.4807C48.5652 107.758 66.6679 100.217 82.4279 81.3252C89.1167 73.307 88.3755 61.4049 88.6524 51.5839C88.7091 49.5719 89.9101 43.3147 87.3775 41.9947C81.0911 38.7183 73.0027 36.1916 65.9294 35.7018C43.9886 34.1828 44.2379 89.5609 49.6558 102.077C51.6955 106.788 53.0069 114.651 58.73 115.636C66.1265 116.91 77.3787 115.701 83.8528 111.516C90.9579 106.923 93.3783 93.7987 94.8019 86.1197C94.9724 85.1998 95.1417 75.4239 91.4272 78.1038C86.6652 81.5394 88.4937 94.3433 86.0276 99.5295C83.2943 105.278 70.6902 104.435 65.9294 103.575C55.5974 101.708 54.6168 78.4723 57.6801 70.912C60.1263 64.8748 75.1971 63.7595 80.3281 62.2218C88.9238 59.6458 89.3644 55.711 92.0271 47.2388C95.7261 35.4689 96.9362 21.998 91.9521 10.3805C87.9393 1.02699 63.3245 -1.46435 59.6299 8.58257C56.5901 16.8492 63.1387 26.8723 52.8805 31.8063C46.2723 34.9847 32.1912 33.5311 25.283 32.1059C16.7885 30.3535 15.055 25.3348 9.83432 20.1195C4.80038 15.0908 11.1166 34.4822 13.734 41.0957C15.1239 44.6078 15.7152 48.2821 19.9584 48.812C33.2529 50.4721 25.8743 32.1568 24.2331 25.9629C22.8313 20.6728 23.8577 19.3915 18.8335 16.5236C16.7121 15.3126 11.9892 14.1847 11.7841 17.872C11.505 22.8918 17.3267 18.2354 19.8834 17.1978C28.1366 13.8485 51.3057 4.97842 57.0052 15.1002C61.1409 22.445 61.0166 33.0933 67.5043 38.9981C74.7439 45.5873 85.775 49.5327 95.1768 51.5839C104.322 53.579 110.489 49.5958 118.125 45.1412C124.912 41.1816 129.665 41.4743 128.924 33.6042C128.261 26.5652 129.256 20.3085 123.899 15.8493C118.815 11.6169 108.877 39.5951 106.276 43.493" stroke="#131E27" stroke-width="3" stroke-linecap="round"/>
</svg>
