<svg width="49" height="49" viewBox="0 0 49 49" fill="none" xmlns="http://www.w3.org/2000/svg">
<path d="M49 24.5041C49 24.4644 49 24.4246 49 24.3849C48.9338 21.8213 46.801 19.7944 44.2444 19.8672L41.6679 19.9335L44.0589 18.5755C45.5624 17.721 46.4102 16.1511 46.4102 14.5348C46.4102 13.7598 46.2182 12.9716 45.8075 12.2495C44.5424 10.0238 41.7142 9.24219 39.4888 10.5008L37.1242 11.8388L38.429 9.68601C38.886 8.93749 39.098 8.10947 39.098 7.28809C39.098 5.71818 38.3032 4.18801 36.8659 3.32025C34.6736 1.99544 31.8255 2.69759 30.5008 4.88354L29.1695 7.07612L29.1033 4.50597C29.037 1.95569 26.9043 -0.0646575 24.3477 0.00158345C21.8308 0.0678244 19.8305 2.12792 19.8305 4.63845C19.8305 4.67819 19.8305 4.71794 19.8305 4.75768L19.8967 7.26821L18.5654 4.98953C17.2739 2.77708 14.4324 2.03518 12.2202 3.32688C10.7432 4.18801 9.92187 5.73805 9.92187 7.33445C9.92187 8.12935 10.1272 8.93748 10.5577 9.67276L11.8228 11.8388L9.69005 10.5935C7.47783 9.30181 4.64301 10.0437 3.34482 12.2495C2.9143 12.9848 2.70898 13.7929 2.70898 14.5878C2.70898 16.1776 3.53028 17.7343 5.00068 18.5954L7.26588 19.9202L4.50392 19.9931C2.00027 20.0593 0 22.1194 0 24.63C0 24.6697 0 24.7095 0 24.7492C0.0662341 27.2664 2.12612 29.2668 4.62976 29.2668C4.66951 29.2668 4.70925 29.2668 4.74899 29.2668L7.12017 29.2072L5.02055 30.4459C3.55015 31.3137 2.73547 32.8571 2.73547 34.4469C2.73547 35.2484 2.94079 36.0565 3.37794 36.7984C4.24561 38.2623 5.78886 39.0837 7.37848 39.0837C8.17991 39.0837 8.98797 38.8784 9.72979 38.4412L11.8692 37.1826L10.5776 39.3752C10.1404 40.1171 9.92849 40.9252 9.93512 41.7334C9.93512 43.3165 10.7498 44.8666 12.2136 45.7277C12.9554 46.1649 13.7634 46.3702 14.5649 46.3702C16.1479 46.3702 17.6978 45.5555 18.5588 44.0915L19.8702 41.8725L19.9365 44.4824C20.0027 46.9995 22.0626 49 24.5662 49C24.606 49 24.6457 49 24.6855 49C27.2023 48.9338 29.2026 46.8737 29.2026 44.3631C29.2026 44.3234 29.2026 44.2836 29.2026 44.2439L29.143 41.8791L30.6267 44.2439C31.5076 45.6482 33.0177 46.4166 34.561 46.4166C35.4021 46.4166 36.2566 46.1848 37.0182 45.7078C38.4224 44.8268 39.1907 43.3232 39.1907 41.7797C39.1907 40.9385 38.9589 40.084 38.482 39.3156L37.1573 37.2025L39.3629 38.4942C40.0981 38.9248 40.9062 39.1301 41.701 39.1301C43.2906 39.1301 44.8405 38.3087 45.7015 36.8382C46.1321 36.1029 46.3374 35.2947 46.3374 34.4932C46.3374 32.9035 45.5161 31.3534 44.0457 30.4923L41.8798 29.2205L44.4762 29.1542C46.9931 29.088 48.9934 27.0279 48.9934 24.5174L49 24.5041ZM29.9246 34.3872C28.8781 35.043 28.1826 36.0565 27.8978 37.1627C27.0235 36.1956 25.7518 35.6061 24.3477 35.6392C23.0826 35.6723 21.9434 36.2089 21.1287 37.0568C20.8306 35.9042 20.1021 34.8708 18.9959 34.2216C17.8302 33.5327 16.4923 33.4201 15.2868 33.7845C15.4325 33.3274 15.5187 32.8505 15.5187 32.3669C15.5187 31.5654 15.3133 30.7572 14.8762 30.0154C14.2072 28.876 13.121 28.1341 11.9221 27.8559C12.7964 27.008 13.3396 25.8289 13.3396 24.524C13.3396 24.4842 13.3396 24.4445 13.3396 24.4047C13.3064 23.1263 12.7567 21.9869 11.9023 21.1656C13.1011 20.8873 14.194 20.1455 14.8696 18.9929C15.3001 18.2576 15.5054 17.4494 15.5054 16.6546C15.5054 16.1842 15.4259 15.7272 15.2868 15.2834C15.7174 15.4158 16.1677 15.4887 16.6181 15.4887C17.4129 15.4887 18.221 15.2834 18.9562 14.8528C20.1219 14.1705 20.877 13.051 21.1419 11.8256C21.9897 12.7596 23.2151 13.3491 24.5662 13.3491C24.606 13.3491 24.6457 13.3491 24.6855 13.3491C25.9373 13.316 27.0566 12.7927 27.8647 11.9713C28.1627 13.0908 28.8714 14.1043 29.9444 14.7468C30.6929 15.2039 31.5208 15.4158 32.3421 15.4158C32.8389 15.4158 33.3356 15.3231 33.8059 15.1708C33.6668 15.6212 33.5873 16.0849 33.5873 16.5552C33.5873 17.3302 33.7794 18.1185 34.19 18.8405C34.8723 20.0461 36.0181 20.8211 37.2766 21.0861C36.2764 21.9406 35.6472 23.2058 35.6538 24.6101C35.6538 24.6498 35.6538 24.6896 35.6538 24.7293C35.6869 25.9813 36.2168 27.1074 37.0447 27.9221C35.8856 28.2136 34.8391 28.9555 34.19 30.0683C33.7595 30.8036 33.5542 31.6118 33.5542 32.4133C33.5542 32.9233 33.6469 33.4201 33.8059 33.8971C32.5474 33.493 31.13 33.6255 29.9179 34.3806L29.9246 34.3872Z" fill="#1F2D38"/>
</svg>
